<?xml version="1.0" encoding="UTF-8"?>
<svg id="_圖層_1" data-name="圖層_1" xmlns="http://www.w3.org/2000/svg" version="1.1" viewBox="0 0 366.44 201.05">
  <!-- Generator: Adobe Illustrator 30.4.0, SVG Export Plug-In . SVG Version: 2.1.4 Build 226)  -->
  <defs>
    <style>
      .st0 {
        fill: #4b2438;
      }
    </style>
  </defs>
  <g>
    <path class="st0" d="M44.04,43.29c-3.81,3.39-5.68,5.55-4.31,9.67l18.05,54.33,13.46-42.22-4.35-13.38c-1.87-3.24-3.89-5.47-6.77-8.16l24.35.11c-2.77,2.64-5.85,4.99-4.62,8.9l17.38,55.33c7.05-21.81,11.74-42.05,17.07-63.08,1.95-7.68,5.55-14.46,10.71-19.91,8.13-6.64,18.79-9.43,27.94-3.48-12.58,1.04-22.07,6.97-28.13,17.38-4.9,8.41-8.56,16.95-11.59,26.82l-18.35,59.77c-.25.81-1.38,1.87-1.8,2.07-.55.26-1.7-1.12-1.91-1.78l-18.51-56.92-16.96,56.73c-.24.79-1.12,1.87-1.71,2.05s-2.28-1.03-2.5-1.67L28.15,57.16c-2.11-6.2-4.96-9.84-10.85-13.59l26.75-.29Z"/>
    <path class="st0" d="M204.59,120.27c-14,11.34-35.53,7.66-50.59.76l.35-20.67c5.17,11.6,12.55,21.23,24.72,24.14,10.96,2.62,21.62-4.22,22.35-15.57.38-5.95-3.54-11.03-8.6-13.85l-22.87-12.72c-10.15-5.64-13.34-18.56-6.06-27.63,10.41-12.97,30.48-11.15,44.02-4.65l.04,16.59c-4.65-8.48-9.61-15.77-18.71-18.67-6.79-2.17-14.66-.03-18.22,6.3s-.69,13.72,5.56,17.17l24.03,13.24c6.39,3.52,10.77,9.53,11.56,15.77.98,7.77-1.64,14.97-7.58,19.79Z"/>
    <path class="st0" d="M135.13,119.41c-4.39,6.22-9.95,8.12-12.59,8.12-9.15,0-14.57-7.25-14.57-15.22,0-5.27,2.12-9.73,5.2-12.88,3.29-3.44,6.95-4.61,10.39-4.61,6.95,0,11.42,5.05,11.49,10.83,0,1.17-.07,1.61-.37,1.68-2.34.44-11.64,1.1-18.52,1.39.07,9,5.2,13.17,10.25,13.17,2.63,0,5.27-.66,8.05-3.37l.66.88ZM121.51,96.72c-2.71,0-4.83,2.93-5.2,9.88,2.93,0,5.78,0,8.71-.22,1.1-.07,1.76-.15,1.76-1.02,0-4.39-2.12-8.64-5.27-8.64Z"/>
    <g>
      <path class="st0" d="M217.69,98.38c4.54-.59,8.2-1.76,12.22-3.29-.07,1.83-.15,3.51-.15,5.34,1.24-.81,3.88-2.42,4.9-3.07,1.98-1.24,3.37-1.54,4.47-1.54,7.69,0,12.08,6.95,12.08,13.76,0,9.95-8.71,16.98-16.98,18.96-1.76,0-3.29-.29-4.46-.73v10.61c0,5.42.51,5.71,5.2,6.66v1.17h-17.86v-1.17c4.03-.95,4.32-1.24,4.32-6.66v-32.42c0-5.27-.44-5.56-3.73-6.66v-.95ZM229.77,123.33c1.54,1.32,4.39,2.27,6.81,2.27,5.34,0,6-5.86,6-11.49,0-9.22-3.95-13.54-7.98-13.54-1.98,0-3.29.44-4.83,1.46v21.3Z"/>
      <path class="st0" d="M278.22,128.53c-1.83,0-3.15-.51-4.1-1.46-.81-.81-1.39-1.98-1.68-3.22-2.34,1.83-6.08,4.68-7.39,4.68-5.2,0-8.71-4.39-8.71-8.71,0-3.44,1.61-5.2,4.9-6.37,3.95-1.46,9.29-2.78,11.05-4.1v-4.32c0-4.54-2.78-6.66-4.9-6.66-1.32,0-2.27.59-3,1.61-.51.73-1.03,2.05-1.68,4.83-.37,1.46-.88,1.98-1.9,1.98-2.34,0-3.81-1.9-3.81-3.37,0-.81.66-1.68,2.12-2.63,3.66-2.34,8.27-4.46,11.05-4.98,3.15,0,4.9.95,6.51,2.05,3,2.34,3.73,5.27,3.73,9.51v12.59c0,3,1.1,4.03,2.42,4.03.51,0,1.17-.07,1.68-.29l.37,1.17-6.66,3.66ZM272.3,110.89c-1.1.59-2.27.95-3.81,1.76-2.71,1.46-3.95,2.78-3.95,5.34,0,4.03,2.2,5.71,4.32,5.71,1.02,0,2.12-.15,3.37-1.17,0-4.24.07-7.39.07-11.64Z"/>
      <path class="st0" d="M304.36,127.65h-16.98v-1.17c3.73-.66,3.95-.95,3.95-6.29v-15.59c0-3.81-.58-4.25-3.29-5.12v-.95c3.81-.44,8.12-1.32,11.86-2.85-.07,1.17-.22,5.05-.22,7.69,1.83-3.37,4.83-7.54,8.42-7.54,2.42,0,4.17,1.46,4.17,3.73,0,1.98-1.9,4.9-3.66,5.49-.95.37-1.32.22-1.83-.29-1.32-1.24-2.05-2.2-3.37-2.2-1.1,0-2.49.59-3.73,3.15v14.49c0,5.34.59,5.49,4.68,6.29v1.17Z"/>
      <path class="st0" d="M349.15,127.65c-5.42,0-9.81.07-12.3.22-2.27-3.59-7.98-12.88-9.08-14.35-.44-.66-.8-1.1-1.02-1.24-.44-.22-.81-.22-1.17-.22v8.12c0,5.34.66,5.49,4.17,6.29v1.17h-16.54v-1.17c3.59-.66,4.1-1.1,4.1-6.29v-35.28c0-4.68-.51-5.12-3.88-5.86v-1.02c4.17-.29,9.44-1.24,12.44-2.49-.07,1.02-.29,4.32-.29,9.51v25.84c1.83-.37,2.93-1.32,4.17-2.63,1.61-1.76,4.24-5.2,5.71-7.32,1.32-1.98.66-2.49-3.51-3.15v-1.1l14.56-.66v1.1c-5.05.88-6.22,1.83-8.49,4.17-2.34,2.49-3.37,4.03-5.27,6.22,2.34,3.51,6.95,10.32,10.47,14.93,2.49,3.29,3,3.59,5.93,4.03v1.17Z"/>
    </g>
  </g>
  <g>
    <path class="st0" d="M79.6,166.34c2.21.35,3.91,1.43,3.91,3.42,0,1.49-.76,2.52-1.82,3.13-1.06.61-2.56.86-4.11.86h-4.97v-.33c1.45-.27,1.64-.43,1.64-2.19v-8.35c0-1.78-.2-1.82-1.64-2.11v-.33h5.73c1.7,0,2.58.25,3.32.74.72.49,1.13,1.23,1.13,2.17,0,1.86-1.72,2.68-3.17,2.99ZM77.64,166.26c1.84,0,2.52-.78,2.52-2.48,0-2.13-1.08-2.84-2.27-2.84-.35,0-.74.04-.9.18-.18.14-.2.45-.2,1v4.13h.86ZM76.78,171.35c0,1.41.55,1.88,1.7,1.88,1.27,0,2.21-1.13,2.21-3.32,0-2.05-.8-3.17-3.09-3.17h-.82v4.6Z"/>
    <path class="st0" d="M103.3,170.53c-.1.72-.47,2.72-.59,3.21h-9.99v-.33c1.76-.25,1.9-.35,1.9-2.17v-8.31c0-1.84-.1-2.01-1.56-2.17v-.33h6.2c2.01,0,2.8-.02,2.97-.04.02.78.1,2.09.2,2.97l-.33.06c-.16-.51-.43-1.27-.88-1.8-.37-.45-.82-.57-2.03-.57h-1.53c-.43,0-.51.08-.51.49v4.89h1.98c1.62,0,1.68-.45,1.96-1.72h.33v4.05h-.33c-.29-1.21-.35-1.72-1.96-1.72h-1.98v4.36c0,1.43.31,1.7,1.58,1.72h1.21c1.21,0,1.49-.16,2.01-.72.37-.41.7-1.11,1.04-1.94l.31.06Z"/>
    <path class="st0" d="M119.86,173.75v-.33c1.41-.31,1.43-.53,1.06-1.6-.25-.68-.59-1.74-1.02-2.89h-3.74c-.35.94-.68,1.86-.92,2.6-.47,1.37-.31,1.56,1.47,1.88v.33h-4.44v-.33c1.35-.22,1.62-.49,2.33-2.31l4.24-10.8.55-.08c1.29,3.62,2.62,7.18,3.97,10.76.72,1.96.92,2.17,2.17,2.44v.33h-5.67ZM118.07,163.68c-.63,1.7-1.1,3.09-1.68,4.6h3.25l-1.58-4.6Z"/>
    <path class="st0" d="M146.5,160.78c-1.62.18-1.62.76-1.68,1.6-.04.61-.08,1.37-.08,2.88v2.42c0,2.15-.18,3.76-1.31,4.99-.88.94-2.11,1.39-3.74,1.39-1.33,0-2.62-.29-3.6-1.1-1.08-.9-1.49-2.17-1.49-4.28v-5.32c0-2.11-.12-2.33-1.66-2.58v-.33h5.83v.33c-1.58.29-1.64.47-1.64,2.58v5.57c0,2.68,1.29,3.99,3.54,3.99,2.45,0,3.4-1.29,3.4-5.18v-2.48c0-1.51-.04-2.33-.1-2.97-.08-1-.33-1.37-2.13-1.51v-.33h4.67v.33Z"/>
    <path class="st0" d="M166.92,163.48c-.25-.8-.39-1.37-.9-1.94-.35-.39-.59-.49-1.64-.49h-1.68v10.19c0,1.76.2,1.92,1.8,2.19v.33h-6.06v-.33c1.49-.33,1.72-.39,1.72-2.19v-10.19h-1.86c-.88,0-1.13.23-1.41.53-.35.39-.68,1.15-.92,1.94h-.35c.1-1.1.2-2.48.25-3.52h.29c.35.45.68.45,1.25.45h8.21c.53,0,.84-.06,1.25-.45h.27c0,.92.02,2.39.12,3.44l-.33.04Z"/>
    <path class="st0" d="M187.82,160.78c-1.39.18-1.6.49-2.31,1.76-.84,1.49-1.66,3.13-2.43,4.67-.16.33-.25.49-.25.94v2.68c0,2.23.14,2.31,1.74,2.6v.33h-6.04v-.33c1.64-.22,1.74-.43,1.74-2.6v-2.31c0-.43-.06-.7-.25-1.06-.51-1.04-1.39-2.7-2.52-4.69-.88-1.56-1.04-1.78-2.23-1.98v-.33h5.65v.33c-1.33.29-1.43.47-1,1.33.8,1.58,1.7,3.21,2.6,4.97.72-1.43,1.74-3.54,2.31-4.81.39-.88.41-1.25-1.27-1.49v-.33h4.26v.33Z"/>
    <path class="st0" d="M220.68,167.94c-1.08.29-1.31.43-1.31,1.51v1.92c0,.74.04,1.41.14,1.98-1.19.23-3.19.7-4.79.7-4.75,0-7.3-2.8-7.3-6.81,0-4.73,3.6-7.08,7.78-7.08,2.01,0,3.44.35,4.01.39.04.9.08,1.96.23,3.17l-.33.06c-.27-1.19-.86-2.35-2.23-2.8-.68-.22-1.35-.31-2.15-.31-2.7,0-4.42,2.11-4.42,6.06,0,3.64,1.08,6.83,4.48,6.83.43,0,1.15-.08,1.53-.33.31-.18.51-.43.51-1.45v-2.07c0-1.31-.18-1.51-1.82-1.78v-.33h5.67v.33Z"/>
    <path class="st0" d="M242.68,173.89h-.92c-2.46-.1-3.11-.57-3.81-1.66-.72-1.1-1.35-2.25-2.01-3.52-.45-.86-.76-1.1-1.45-1.1h-.31v3.6c0,1.72.12,1.88,1.64,2.21v.33h-5.77v-.33c1.51-.33,1.64-.45,1.64-2.21v-8.25c0-1.72-.12-1.94-1.64-2.19v-.33h5.5c1.68,0,2.7.18,3.54.78.78.53,1.23,1.37,1.23,2.42,0,2.07-1.58,2.99-2.6,3.42.31.55,1.39,2.44,1.96,3.36.78,1.25,1.04,1.66,1.49,2.19.47.55.76.74,1.56,1l-.06.29ZM234.6,167.14c.98,0,1.7-.08,2.19-.55.57-.53.82-1.25.82-2.44,0-2.37-1.19-3.23-2.35-3.23-.43,0-.72.04-.84.14-.14.1-.23.25-.23.65v5.42h.41Z"/>
    <path class="st0" d="M257.83,160.16c3.62,0,6.65,2.84,6.65,6.81,0,4.28-3.01,7.08-6.71,7.08-3.97,0-6.79-3.07-6.79-6.85,0-3.5,2.54-7.04,6.85-7.04ZM257.42,160.67c-2.01,0-3.52,2-3.52,6.06,0,3.83,1.56,6.81,4.21,6.81,2.05,0,3.44-2.07,3.44-6.04,0-4.28-1.62-6.83-4.13-6.83Z"/>
    <path class="st0" d="M287.54,160.78c-1.62.18-1.62.76-1.68,1.6-.04.61-.08,1.37-.08,2.88v2.42c0,2.15-.18,3.76-1.31,4.99-.88.94-2.11,1.39-3.74,1.39-1.33,0-2.62-.29-3.6-1.1-1.08-.9-1.49-2.17-1.49-4.28v-5.32c0-2.11-.12-2.33-1.66-2.58v-.33h5.83v.33c-1.58.29-1.64.47-1.64,2.58v5.57c0,2.68,1.29,3.99,3.54,3.99,2.45,0,3.4-1.29,3.4-5.18v-2.48c0-1.51-.04-2.33-.1-2.97-.08-1-.33-1.37-2.13-1.51v-.33h4.67v.33Z"/>
    <path class="st0" d="M301.99,160.45c1.62,0,2.72.31,3.48.82.96.65,1.47,1.6,1.47,2.86,0,2.93-2.56,4.15-4.6,4.15-.08,0-.25-.02-.37-.04l-1.23-.27v3.25c0,1.82.2,1.96,1.8,2.19v.33h-5.97v-.33c1.51-.25,1.64-.37,1.64-2.19v-8.25c0-1.84-.18-1.96-1.64-2.21v-.33h5.42ZM300.74,167.55c.25.08.63.1,1.08.1.61,0,2.39-.31,2.39-3.5,0-2.44-1.04-3.23-2.48-3.23-.37,0-.68.06-.8.14-.18.12-.2.33-.2.65v5.83Z"/>
  </g>
</svg>